<svg width="812" height="352" viewBox="0 0 812 352" fill="none" xmlns="http://www.w3.org/2000/svg">
<path d="M318.61 197.947L283.94 120.517H266.47V219.257H282.66V151.627L312.93 219.257H324.15L354.27 151.627V219.257H370.47V120.517H353.13L318.61 197.947Z" fill="black"/>
<path d="M463.551 178.197C463.69 171.191 462.027 164.266 458.72 158.087C455.606 152.375 450.926 147.671 445.231 144.527C439.175 141.238 432.371 139.574 425.481 139.697C418.365 139.566 411.338 141.289 405.09 144.697C399.218 147.968 394.429 152.882 391.311 158.837C387.934 165.399 386.25 172.699 386.41 180.077C386.24 187.467 387.961 194.779 391.41 201.317C394.617 207.269 399.443 212.192 405.331 215.517C411.472 218.943 418.409 220.685 425.441 220.567C434.621 220.567 442.314 218.27 448.52 213.677C454.573 209.292 459.077 203.097 461.381 195.987H443.921C440.321 203.274 434.164 206.92 425.451 206.927C419.794 207.078 414.296 205.044 410.101 201.247C405.934 197.46 403.601 192.437 403.101 186.177H462.921C463.337 183.537 463.547 180.869 463.551 178.197ZM403.311 173.077C404.071 167.017 406.441 162.21 410.421 158.657C414.344 155.125 419.463 153.216 424.741 153.317C430.389 153.142 435.902 155.062 440.22 158.707C444.394 162.307 446.527 167.09 446.621 173.057L403.311 173.077Z" fill="black"/>
<path d="M538.111 140.977V152.317C535.148 148.547 531.393 145.474 527.111 143.317C522.115 140.808 516.579 139.565 510.991 139.697C504.406 139.63 497.932 141.386 492.284 144.771C486.636 148.157 482.035 153.039 478.991 158.877C475.631 165.316 473.946 172.496 474.091 179.757C473.963 187.086 475.646 194.334 478.991 200.857C482.01 206.786 486.583 211.784 492.221 215.317C497.415 218.441 503.31 220.214 509.366 220.475C515.422 220.735 521.447 219.474 526.891 216.807C531.284 214.624 535.122 211.467 538.111 207.577V219.227H554.451V140.977H538.111ZM534.771 194.177C532.76 197.982 529.735 201.156 526.031 203.347C522.496 205.41 518.473 206.487 514.381 206.467C510.31 206.48 506.312 205.392 502.811 203.317C499.071 201.087 496.021 197.864 494.001 194.007C491.698 189.631 490.549 184.74 490.661 179.797C490.529 174.918 491.681 170.091 494.001 165.797C496.018 162.044 499.041 158.928 502.731 156.797C506.278 154.772 510.296 153.716 514.381 153.737C518.475 153.715 522.499 154.797 526.031 156.867C529.722 159.038 532.746 162.183 534.771 165.957C537.083 170.279 538.234 175.127 538.111 180.027C538.231 184.952 537.08 189.825 534.771 194.177Z" fill="black"/>
<path d="M634.441 140.977V152.317C631.478 148.547 627.723 145.475 623.441 143.317C618.442 140.807 612.903 139.564 607.311 139.697C600.727 139.633 594.254 141.391 588.607 144.776C582.959 148.161 578.358 153.041 575.311 158.877C571.956 165.317 570.271 172.497 570.411 179.757C570.288 187.086 571.971 194.332 575.311 200.857C578.337 206.784 582.912 211.781 588.551 215.317C593.743 218.441 599.636 220.214 605.691 220.475C611.746 220.735 617.769 219.474 623.211 216.807C627.609 214.627 631.45 211.47 634.441 207.577V219.227H650.781V140.977H634.441ZM631.101 194.177C629.087 197.98 626.062 201.153 622.361 203.347C618.826 205.41 614.803 206.487 610.711 206.467C606.637 206.479 602.637 205.39 599.131 203.317C595.393 201.084 592.344 197.862 590.321 194.007C588.023 189.629 586.874 184.74 586.981 179.797C586.855 174.919 588.006 170.093 590.321 165.797C591.82 163.094 593.842 160.716 596.27 158.803C598.697 156.889 601.481 155.478 604.46 154.652C607.438 153.825 610.552 153.6 613.618 153.989C616.684 154.378 619.643 155.373 622.321 156.917C626.01 159.091 629.033 162.235 631.061 166.007C633.368 170.331 634.519 175.178 634.401 180.077C634.519 184.981 633.384 189.835 631.101 194.177Z" fill="black"/>
<path d="M730.76 114.117V151.917C727.589 148.036 723.517 144.988 718.9 143.037C714.153 140.858 708.994 139.719 703.77 139.697C697.149 139.59 690.629 141.328 684.939 144.715C679.248 148.102 674.613 153.006 671.55 158.877C668.191 165.316 666.506 172.496 666.65 179.757C666.523 187.086 668.206 194.334 671.55 200.857C674.612 206.808 679.242 211.808 684.94 215.317C690.557 218.773 697.036 220.572 703.63 220.507C709.226 220.616 714.763 219.346 719.75 216.807C724.12 214.618 727.895 211.403 730.75 207.437V219.227H747.09V114.117H730.76ZM727.42 194.177C725.41 197.979 722.389 201.153 718.69 203.347C715.155 205.409 711.133 206.486 707.04 206.467C702.967 206.482 698.965 205.393 695.46 203.317C691.72 201.087 688.671 197.864 686.65 194.007C684.348 189.631 683.199 184.74 683.31 179.797C683.179 174.918 684.331 170.091 686.65 165.797C688.673 162.045 691.699 158.929 695.39 156.797C698.937 154.77 702.955 153.714 707.04 153.737C711.134 153.716 715.158 154.798 718.69 156.867C722.377 159.042 725.397 162.186 727.42 165.957C729.733 170.279 730.883 175.127 730.76 180.027C730.881 184.952 729.73 189.825 727.42 194.177Z" fill="black"/>
<path d="M180.981 213.317L140.661 172.607L180.981 131.907C182.455 130.424 183.812 128.829 185.041 127.137C197.341 110.137 191.201 91.137 178.771 81.067C166.071 70.787 145.721 68.687 131.421 84.567L127.871 88.5071L124.321 84.567C110.021 68.687 89.6706 70.787 76.9706 81.067C64.5406 91.127 58.4006 110.177 70.7006 127.137C71.9292 128.829 73.2866 130.424 74.7606 131.907L115.081 172.607L74.7606 213.317C73.2888 214.806 71.9316 216.404 70.7006 218.097C58.4006 235.097 64.5406 254.097 76.9706 264.167C80.2616 266.812 83.9824 268.872 87.9706 270.257C89.6603 273.543 92.362 276.198 95.6767 277.83C98.9914 279.463 102.743 279.986 106.378 279.322C110.013 278.658 113.337 276.843 115.861 274.144C118.385 271.446 119.974 268.007 120.393 264.336C120.812 260.665 120.04 256.957 118.19 253.759C116.339 250.56 113.509 248.042 110.118 246.576C106.726 245.11 102.953 244.773 99.3559 245.616C95.7585 246.459 92.5276 248.437 90.1406 251.257C89.5497 250.88 88.9789 250.473 88.4306 250.037C83.0906 245.717 79.1006 237.557 85.4306 228.807C86.1176 227.863 86.8765 226.974 87.7006 226.147L127.881 185.577L168.061 226.147C168.881 226.974 169.637 227.863 170.321 228.807C176.671 237.557 172.681 245.717 167.321 250.037C166.791 250.467 166.211 250.867 165.621 251.257C163.234 248.44 160.005 246.465 156.41 245.623C152.815 244.782 149.045 245.119 145.656 246.585C142.267 248.051 139.44 250.568 137.591 253.764C135.743 256.96 134.971 260.665 135.39 264.334C135.809 268.002 137.396 271.438 139.918 274.135C142.44 276.832 145.762 278.646 149.394 279.31C153.026 279.974 156.775 279.453 160.088 277.822C163.4 276.192 166.101 273.54 167.791 270.257C171.779 268.872 175.5 266.812 178.791 264.167C191.221 254.107 197.361 235.057 185.061 218.097C183.826 216.401 182.462 214.803 180.981 213.317ZM87.6906 119.107C86.8689 118.278 86.1102 117.389 85.4206 116.447C79.0806 107.697 83.0706 99.5371 88.4206 95.2071C91.466 92.6693 95.2778 91.2319 99.2406 91.127C103.091 91.127 107.151 92.677 110.811 96.747L127.881 115.747L144.951 96.747C152.501 88.357 161.731 90.6771 167.331 95.2071C172.681 99.5371 176.671 107.697 170.331 116.447C169.644 117.389 168.889 118.278 168.071 119.107L127.891 159.667L87.6906 119.107Z" fill="black"/>
</svg>
